<?xml version="1.0" standalone="no"?><!DOCTYPE svg PUBLIC "-//W3C//DTD SVG 1.1//EN" "http://www.w3.org/Graphics/SVG/1.1/DTD/svg11.dtd"><svg t="1588605565029" class="icon" viewBox="0 0 1024 1024" version="1.1" xmlns="http://www.w3.org/2000/svg" p-id="1361" xmlns:xlink="http://www.w3.org/1999/xlink" width="200" height="200"><defs><style type="text/css">@font-face { font-family: "Leelawadee UI Web"; src: url("https://static2.sharepointonline.com/files/fabric/assets/fonts/leelawadeeui-thai/leelawadeeui-light.woff2") format("woff2"), url("https://static2.sharepointonline.com/files/fabric/assets/fonts/leelawadeeui-thai/leelawadeeui-light.woff") format("woff"); font-weight: 100; font-style: normal; font-display: swap; }
@font-face { font-family: "Leelawadee UI Web"; src: url("https://static2.sharepointonline.com/files/fabric/assets/fonts/leelawadeeui-thai/leelawadeeui-semilight.woff2") format("woff2"), url("https://static2.sharepointonline.com/files/fabric/assets/fonts/leelawadeeui-thai/leelawadeeui-semilight.woff") format("woff"); font-weight: 300; font-style: normal; font-display: swap; }
@font-face { font-family: "Leelawadee UI Web"; src: url("https://static2.sharepointonline.com/files/fabric/assets/fonts/leelawadeeui-thai/leelawadeeui-regular.woff2") format("woff2"), url("https://static2.sharepointonline.com/files/fabric/assets/fonts/leelawadeeui-thai/leelawadeeui-regular.woff") format("woff"); font-weight: 400; font-style: normal; font-display: swap; }
@font-face { font-family: "Leelawadee UI Web"; src: url("https://static2.sharepointonline.com/files/fabric/assets/fonts/leelawadeeui-thai/leelawadeeui-semibold.woff2") format("woff2"), url("https://static2.sharepointonline.com/files/fabric/assets/fonts/leelawadeeui-thai/leelawadeeui-semibold.woff") format("woff"); font-weight: 600; font-style: normal; font-display: swap; }
@font-face { font-family: "Segoe UI Web (Arabic)"; src: url("https://static2.sharepointonline.com/files/fabric/assets/fonts/segoeui-arabic/segoeui-light.woff2") format("woff2"), url("https://static2.sharepointonline.com/files/fabric/assets/fonts/segoeui-arabic/segoeui-light.woff") format("woff"); font-weight: 100; font-style: normal; font-display: swap; }
@font-face { font-family: "Segoe UI Web (Arabic)"; src: url("https://static2.sharepointonline.com/files/fabric/assets/fonts/segoeui-arabic/segoeui-semilight.woff2") format("woff2"), url("https://static2.sharepointonline.com/files/fabric/assets/fonts/segoeui-arabic/segoeui-semilight.woff") format("woff"); font-weight: 300; font-style: normal; font-display: swap; }
@font-face { font-family: "Segoe UI Web (Arabic)"; src: url("https://static2.sharepointonline.com/files/fabric/assets/fonts/segoeui-arabic/segoeui-regular.woff2") format("woff2"), url("https://static2.sharepointonline.com/files/fabric/assets/fonts/segoeui-arabic/segoeui-regular.woff") format("woff"); font-weight: 400; font-style: normal; font-display: swap; }
@font-face { font-family: "Segoe UI Web (Arabic)"; src: url("https://static2.sharepointonline.com/files/fabric/assets/fonts/segoeui-arabic/segoeui-semibold.woff2") format("woff2"), url("https://static2.sharepointonline.com/files/fabric/assets/fonts/segoeui-arabic/segoeui-semibold.woff") format("woff"); font-weight: 600; font-style: normal; font-display: swap; }
@font-face { font-family: "Segoe UI Web (Cyrillic)"; src: url("https://static2.sharepointonline.com/files/fabric/assets/fonts/segoeui-cyrillic/segoeui-light.woff2") format("woff2"), url("https://static2.sharepointonline.com/files/fabric/assets/fonts/segoeui-cyrillic/segoeui-light.woff") format("woff"); font-weight: 100; font-style: normal; font-display: swap; }
@font-face { font-family: "Segoe UI Web (Cyrillic)"; src: url("https://static2.sharepointonline.com/files/fabric/assets/fonts/segoeui-cyrillic/segoeui-semilight.woff2") format("woff2"), url("https://static2.sharepointonline.com/files/fabric/assets/fonts/segoeui-cyrillic/segoeui-semilight.woff") format("woff"); font-weight: 300; font-style: normal; font-display: swap; }
@font-face { font-family: "Segoe UI Web (Cyrillic)"; src: url("https://static2.sharepointonline.com/files/fabric/assets/fonts/segoeui-cyrillic/segoeui-regular.woff2") format("woff2"), url("https://static2.sharepointonline.com/files/fabric/assets/fonts/segoeui-cyrillic/segoeui-regular.woff") format("woff"); font-weight: 400; font-style: normal; font-display: swap; }
@font-face { font-family: "Segoe UI Web (Cyrillic)"; src: url("https://static2.sharepointonline.com/files/fabric/assets/fonts/segoeui-cyrillic/segoeui-semibold.woff2") format("woff2"), url("https://static2.sharepointonline.com/files/fabric/assets/fonts/segoeui-cyrillic/segoeui-semibold.woff") format("woff"); font-weight: 600; font-style: normal; font-display: swap; }
@font-face { font-family: "Segoe UI Web (East European)"; src: url("https://static2.sharepointonline.com/files/fabric/assets/fonts/segoeui-easteuropean/segoeui-light.woff2") format("woff2"), url("https://static2.sharepointonline.com/files/fabric/assets/fonts/segoeui-easteuropean/segoeui-light.woff") format("woff"); font-weight: 100; font-style: normal; font-display: swap; }
@font-face { font-family: "Segoe UI Web (East European)"; src: url("https://static2.sharepointonline.com/files/fabric/assets/fonts/segoeui-easteuropean/segoeui-semilight.woff2") format("woff2"), url("https://static2.sharepointonline.com/files/fabric/assets/fonts/segoeui-easteuropean/segoeui-semilight.woff") format("woff"); font-weight: 300; font-style: normal; font-display: swap; }
@font-face { font-family: "Segoe UI Web (East European)"; src: url("https://static2.sharepointonline.com/files/fabric/assets/fonts/segoeui-easteuropean/segoeui-regular.woff2") format("woff2"), url("https://static2.sharepointonline.com/files/fabric/assets/fonts/segoeui-easteuropean/segoeui-regular.woff") format("woff"); font-weight: 400; font-style: normal; font-display: swap; }
@font-face { font-family: "Segoe UI Web (East European)"; src: url("https://static2.sharepointonline.com/files/fabric/assets/fonts/segoeui-easteuropean/segoeui-semibold.woff2") format("woff2"), url("https://static2.sharepointonline.com/files/fabric/assets/fonts/segoeui-easteuropean/segoeui-semibold.woff") format("woff"); font-weight: 600; font-style: normal; font-display: swap; }
@font-face { font-family: "Segoe UI Web (Greek)"; src: url("https://static2.sharepointonline.com/files/fabric/assets/fonts/segoeui-greek/segoeui-light.woff2") format("woff2"), url("https://static2.sharepointonline.com/files/fabric/assets/fonts/segoeui-greek/segoeui-light.woff") format("woff"); font-weight: 100; font-style: normal; font-display: swap; }
@font-face { font-family: "Segoe UI Web (Greek)"; src: url("https://static2.sharepointonline.com/files/fabric/assets/fonts/segoeui-greek/segoeui-semilight.woff2") format("woff2"), url("https://static2.sharepointonline.com/files/fabric/assets/fonts/segoeui-greek/segoeui-semilight.woff") format("woff"); font-weight: 300; font-style: normal; font-display: swap; }
@font-face { font-family: "Segoe UI Web (Greek)"; src: url("https://static2.sharepointonline.com/files/fabric/assets/fonts/segoeui-greek/segoeui-regular.woff2") format("woff2"), url("https://static2.sharepointonline.com/files/fabric/assets/fonts/segoeui-greek/segoeui-regular.woff") format("woff"); font-weight: 400; font-style: normal; font-display: swap; }
@font-face { font-family: "Segoe UI Web (Greek)"; src: url("https://static2.sharepointonline.com/files/fabric/assets/fonts/segoeui-greek/segoeui-semibold.woff2") format("woff2"), url("https://static2.sharepointonline.com/files/fabric/assets/fonts/segoeui-greek/segoeui-semibold.woff") format("woff"); font-weight: 600; font-style: normal; font-display: swap; }
@font-face { font-family: "Segoe UI Web (Hebrew)"; src: url("https://static2.sharepointonline.com/files/fabric/assets/fonts/segoeui-hebrew/segoeui-light.woff2") format("woff2"), url("https://static2.sharepointonline.com/files/fabric/assets/fonts/segoeui-hebrew/segoeui-light.woff") format("woff"); font-weight: 100; font-style: normal; font-display: swap; }
@font-face { font-family: "Segoe UI Web (Hebrew)"; src: url("https://static2.sharepointonline.com/files/fabric/assets/fonts/segoeui-hebrew/segoeui-semilight.woff2") format("woff2"), url("https://static2.sharepointonline.com/files/fabric/assets/fonts/segoeui-hebrew/segoeui-semilight.woff") format("woff"); font-weight: 300; font-style: normal; font-display: swap; }
@font-face { font-family: "Segoe UI Web (Hebrew)"; src: url("https://static2.sharepointonline.com/files/fabric/assets/fonts/segoeui-hebrew/segoeui-regular.woff2") format("woff2"), url("https://static2.sharepointonline.com/files/fabric/assets/fonts/segoeui-hebrew/segoeui-regular.woff") format("woff"); font-weight: 400; font-style: normal; font-display: swap; }
@font-face { font-family: "Segoe UI Web (Hebrew)"; src: url("https://static2.sharepointonline.com/files/fabric/assets/fonts/segoeui-hebrew/segoeui-semibold.woff2") format("woff2"), url("https://static2.sharepointonline.com/files/fabric/assets/fonts/segoeui-hebrew/segoeui-semibold.woff") format("woff"); font-weight: 600; font-style: normal; font-display: swap; }
@font-face { font-family: "Segoe UI Web (Vietnamese)"; src: url("https://static2.sharepointonline.com/files/fabric/assets/fonts/segoeui-vietnamese/segoeui-light.woff2") format("woff2"), url("https://static2.sharepointonline.com/files/fabric/assets/fonts/segoeui-vietnamese/segoeui-light.woff") format("woff"); font-weight: 100; font-style: normal; font-display: swap; }
@font-face { font-family: "Segoe UI Web (Vietnamese)"; src: url("https://static2.sharepointonline.com/files/fabric/assets/fonts/segoeui-vietnamese/segoeui-semilight.woff2") format("woff2"), url("https://static2.sharepointonline.com/files/fabric/assets/fonts/segoeui-vietnamese/segoeui-semilight.woff") format("woff"); font-weight: 300; font-style: normal; font-display: swap; }
@font-face { font-family: "Segoe UI Web (Vietnamese)"; src: url("https://static2.sharepointonline.com/files/fabric/assets/fonts/segoeui-vietnamese/segoeui-regular.woff2") format("woff2"), url("https://static2.sharepointonline.com/files/fabric/assets/fonts/segoeui-vietnamese/segoeui-regular.woff") format("woff"); font-weight: 400; font-style: normal; font-display: swap; }
@font-face { font-family: "Segoe UI Web (Vietnamese)"; src: url("https://static2.sharepointonline.com/files/fabric/assets/fonts/segoeui-vietnamese/segoeui-semibold.woff2") format("woff2"), url("https://static2.sharepointonline.com/files/fabric/assets/fonts/segoeui-vietnamese/segoeui-semibold.woff") format("woff"); font-weight: 600; font-style: normal; font-display: swap; }
@font-face { font-family: "Segoe UI Web (West European)"; src: local("Segoe UI Light"), url("https://static2.sharepointonline.com/files/fabric/assets/fonts/segoeui-westeuropean/segoeui-light.woff2") format("woff2"), url("https://static2.sharepointonline.com/files/fabric/assets/fonts/segoeui-westeuropean/segoeui-light.woff") format("woff"); font-weight: 100; font-style: normal; font-display: swap; }
@font-face { font-family: "Segoe UI Web (West European)"; src: local("Segoe UI SemiLight"), url("https://static2.sharepointonline.com/files/fabric/assets/fonts/segoeui-westeuropean/segoeui-semilight.woff2") format("woff2"), url("https://static2.sharepointonline.com/files/fabric/assets/fonts/segoeui-westeuropean/segoeui-semilight.woff") format("woff"); font-weight: 300; font-style: normal; font-display: swap; }
@font-face { font-family: "Segoe UI Web (West European)"; src: local("Segoe UI"), url("https://static2.sharepointonline.com/files/fabric/assets/fonts/segoeui-westeuropean/segoeui-regular.woff2") format("woff2"), url("https://static2.sharepointonline.com/files/fabric/assets/fonts/segoeui-westeuropean/segoeui-regular.woff") format("woff"); font-weight: 400; font-style: normal; font-display: swap; }
@font-face { font-family: "Segoe UI Web (West European)"; src: local("Segoe UI SemiBold"), url("https://static2.sharepointonline.com/files/fabric/assets/fonts/segoeui-westeuropean/segoeui-semibold.woff2") format("woff2"), url("https://static2.sharepointonline.com/files/fabric/assets/fonts/segoeui-westeuropean/segoeui-semibold.woff") format("woff"); font-weight: 600; font-style: normal; font-display: swap; }
@font-face { src: url("https://static2.sharepointonline.com/files/fabric/assets/fonts/selawik/selawik-light.woff2") format("woff2"), url("https://static2.sharepointonline.com/files/fabric/assets/fonts/selawik/selawik-light.woff") format("woff"); font-weight: 100; font-style: normal; font-display: swap; }
@font-face { src: url("https://static2.sharepointonline.com/files/fabric/assets/fonts/selawik/selawik-semilight.woff2") format("woff2"), url("https://static2.sharepointonline.com/files/fabric/assets/fonts/selawik/selawik-semilight.woff") format("woff"); font-weight: 300; font-style: normal; font-display: swap; }
@font-face { src: url("https://static2.sharepointonline.com/files/fabric/assets/fonts/selawik/selawik-regular.woff2") format("woff2"), url("https://static2.sharepointonline.com/files/fabric/assets/fonts/selawik/selawik-regular.woff") format("woff"); font-weight: 400; font-style: normal; font-display: swap; }
@font-face { src: url("https://static2.sharepointonline.com/files/fabric/assets/fonts/selawik/selawik-semibold.woff2") format("woff2"), url("https://static2.sharepointonline.com/files/fabric/assets/fonts/selawik/selawik-semibold.woff") format("woff"); font-weight: 600; font-style: normal; font-display: swap; }
@font-face { font-family: "Segoe UI Web (Armenian)"; src: url("https://static2.sharepointonline.com/files/fabric/assets/fonts/segoeui-armenian/segoeui-light.woff2") format("woff2"), url("https://static2.sharepointonline.com/files/fabric/assets/fonts/segoeui-armenian/segoeui-light.woff") format("woff"); font-weight: 100; font-style: normal; font-display: swap; }
@font-face { font-family: "Segoe UI Web (Armenian)"; src: url("https://static2.sharepointonline.com/files/fabric/assets/fonts/segoeui-armenian/segoeui-semilight.woff2") format("woff2"), url("https://static2.sharepointonline.com/files/fabric/assets/fonts/segoeui-armenian/segoeui-semilight.woff") format("woff"); font-weight: 300; font-style: normal; font-display: swap; }
@font-face { font-family: "Segoe UI Web (Armenian)"; src: url("https://static2.sharepointonline.com/files/fabric/assets/fonts/segoeui-armenian/segoeui-regular.woff2") format("woff2"), url("https://static2.sharepointonline.com/files/fabric/assets/fonts/segoeui-armenian/segoeui-regular.woff") format("woff"); font-weight: 400; font-style: normal; font-display: swap; }
@font-face { font-family: "Segoe UI Web (Armenian)"; src: url("https://static2.sharepointonline.com/files/fabric/assets/fonts/segoeui-armenian/segoeui-semibold.woff2") format("woff2"), url("https://static2.sharepointonline.com/files/fabric/assets/fonts/segoeui-armenian/segoeui-semibold.woff") format("woff"); font-weight: 600; font-style: normal; font-display: swap; }
@font-face { font-family: "Segoe UI Web (Georgian)"; src: url("https://static2.sharepointonline.com/files/fabric/assets/fonts/segoeui-georgian/segoeui-light.woff2") format("woff2"), url("https://static2.sharepointonline.com/files/fabric/assets/fonts/segoeui-georgian/segoeui-light.woff") format("woff"); font-weight: 100; font-style: normal; font-display: swap; }
@font-face { font-family: "Segoe UI Web (Georgian)"; src: url("https://static2.sharepointonline.com/files/fabric/assets/fonts/segoeui-georgian/segoeui-semilight.woff2") format("woff2"), url("https://static2.sharepointonline.com/files/fabric/assets/fonts/segoeui-georgian/segoeui-semilight.woff") format("woff"); font-weight: 300; font-style: normal; font-display: swap; }
@font-face { font-family: "Segoe UI Web (Georgian)"; src: url("https://static2.sharepointonline.com/files/fabric/assets/fonts/segoeui-georgian/segoeui-regular.woff2") format("woff2"), url("https://static2.sharepointonline.com/files/fabric/assets/fonts/segoeui-georgian/segoeui-regular.woff") format("woff"); font-weight: 400; font-style: normal; font-display: swap; }
@font-face { font-family: "Segoe UI Web (Georgian)"; src: url("https://static2.sharepointonline.com/files/fabric/assets/fonts/segoeui-georgian/segoeui-semibold.woff2") format("woff2"), url("https://static2.sharepointonline.com/files/fabric/assets/fonts/segoeui-georgian/segoeui-semibold.woff") format("woff"); font-weight: 600; font-style: normal; font-display: swap; }
@font-face { font-family: "Leelawadee UI Web"; src: url("https://static2.sharepointonline.com/files/fabric/assets/fonts/leelawadeeui-thai/leelawadeeui-semilight.woff2") format("woff2"), url("https://static2.sharepointonline.com/files/fabric/assets/fonts/leelawadeeui-thai/leelawadeeui-semilight.woff") format("woff"); font-weight: 100; font-style: normal; font-display: swap; }
@font-face { font-family: "Leelawadee UI Web"; src: url("https://static2.sharepointonline.com/files/fabric/assets/fonts/leelawadeeui-thai/leelawadeeui-bold.woff2") format("woff2"), url("https://static2.sharepointonline.com/files/fabric/assets/fonts/leelawadeeui-thai/leelawadeeui-bold.woff") format("woff"); font-weight: 600; font-style: normal; font-display: swap; }
@font-face { font-family: FabricMDL2Icons; src: url("fabric-icons.woff") format("woff"); }
</style></defs><path d="M181.65 278.83l328.27 556.8 329.65-550.47z" fill="#FFFFFF" p-id="1362"></path><path d="M181.65 278.83l328.27 556.8 329.65-550.47z" fill="#FFFFFF" p-id="1363"></path><path d="M181.65 278.83l0.23 0.38 611.38 6-306.34 511.44 23 39 329.65-550.49z" fill="#EEEEEE" p-id="1364"></path><path d="M509.92 851.07a15.52 15.52 0 0 1-13.28-7.57L168.38 286.62a15.45 15.45 0 0 1 13.43-23.31l657.91 6.33A15.43 15.43 0 0 1 852.84 293L523.19 843.58a15.63 15.63 0 0 1-13.27 7.49zM208.82 294.5L510 805.45l302.48-505.17z" fill="#202D47" p-id="1365"></path><path d="M340 548.51L509.45 836.1l170.27-284.35z" fill="#FFFFFF" p-id="1366"></path><path d="M509.45 851.53a15.51 15.51 0 0 1-13.27-7.53L326.6 556.3A15.46 15.46 0 0 1 340 533l339.85 3.25A15.43 15.43 0 0 1 693 559.62L522.73 844.05a15.45 15.45 0 0 1-13.28 7.48zM367.13 564.18l142.48 241.66 143.1-239z" fill="#202D47" p-id="1367"></path><path d="M181.65 274c0 47.49 147.9 86 330.35 86s330.35-38.51 330.35-86-147.9-86.1-330.35-86.1-330.35 38.54-330.35 86.1z" fill="#2DCD54" p-id="1368"></path><path d="M512 187.9c-168.49 0-307.5 32.89-327.8 75.34 56.34-26.48 164.71-44.46 289.21-44.46 182.46 0 330.35 38.51 330.35 86.06a24.32 24.32 0 0 1-2.55 10.73c26.24-12.35 41.14-26.57 41.14-41.57 0-47.58-147.89-86.1-330.35-86.1z" fill="#31B952" p-id="1369"></path><path d="M512 375.46c-89.53 0-173.82-9.11-237.49-25.7-31.8-8.34-57-18.14-75-29.18-22.1-13.58-33.29-29.25-33.29-46.58s11.19-33 33.26-46.61c17.91-11 43.15-20.84 75-29.18 63.59-16.59 148-25.7 237.49-25.7s173.82 9.11 237.49 25.7c31.8 8.26 57 18.06 75 29.18 22.07 13.58 33.26 29.33 33.26 46.61s-11.19 33-33.26 46.62c-17.91 11-43.15 20.84-75 29.18-63.64 16.55-147.93 25.66-237.46 25.66z m0-172.12c-87 0-168.57 8.8-229.7 24.7-28.48 7.41-51.48 16.29-66.61 25.55-11.65 7.18-18.6 14.82-18.6 20.37s6.95 13.2 18.6 20.38c15.13 9.34 38.13 18.14 66.61 25.55 61.13 15.9 142.71 24.7 229.7 24.7s168.57-8.8 229.7-24.7c28.48-7.41 51.48-16.29 66.61-25.55 11.65-7.18 18.6-14.82 18.6-20.38s-6.95-13.19-18.6-20.37c-15.13-9.34-38.13-18.14-66.61-25.55-61.13-15.9-142.7-24.7-229.7-24.7z" fill="#202D47" p-id="1370"></path><path d="M346.9 551.83c0 23.74 73.92 43 165.1 43s165.1-19.25 165.1-43-73.92-43-165.1-43-165.1 19.25-165.1 43z" fill="#227CE5" p-id="1371"></path><path d="M512 508.84c-88.68 0-161 18.21-164.94 41.06C377 539.09 425.94 532 481.13 532c91.15 0 165.09 19.22 165.09 43a15.68 15.68 0 0 1-0.15 1.93c19.53-7.1 31-15.74 31-25.08 0.03-23.8-73.92-43.01-165.07-43.01z" fill="#2571CB" p-id="1372"></path><path d="M512 610.26c-45.38 0-88.22-4.64-120.64-13.13-16.67-4.32-29.95-9.57-39.59-15.43-16.83-10.35-20.3-22-20.3-29.87S335 532.3 351.77 522c9.64-6 22.92-11.12 39.59-15.44 32.42-8.41 75.26-13.12 120.64-13.12s88.22 4.63 120.64 13.12c16.67 4.32 30 9.57 39.59 15.44 16.83 10.34 20.3 22 20.3 29.87s-3.55 19.52-20.3 29.87c-9.64 5.94-22.92 11.11-39.59 15.43-32.42 8.45-75.26 13.09-120.64 13.09z m-148.81-58.43c3 2.93 13 10.34 43.07 17.21 29 6.71 66.61 10.34 105.74 10.34s76.72-3.7 105.74-10.34c30-6.87 40.06-14.28 43.07-17.21-3-2.94-13-10.35-43.07-17.22-29-6.71-66.61-10.34-105.74-10.34s-76.72 3.73-105.74 10.34c-30.03 6.87-40.06 14.28-43.07 17.22zM512 452a15.49 15.49 0 0 1-15.44-15.44V226.34a15.44 15.44 0 0 1 30.88 0v210.25A15.49 15.49 0 0 1 512 452z m98 13.35a15.48 15.48 0 0 1-15.43-15.44V267.79a15.44 15.44 0 1 1 30.87 0v182.15A15.49 15.49 0 0 1 610 465.38zM413.2 415.6a15.48 15.48 0 0 1-15.43-15.44V267.79a15.44 15.44 0 1 1 30.87 0v132.37a15.49 15.49 0 0 1-15.44 15.44z" fill="#202D47" p-id="1373"></path><path d="M510.77 591.42L599.22 680" fill="#FFFFFF" p-id="1374"></path><path d="M521.72 580.52L610.19 669l-21.83 21.83-88.47-88.47z" fill="#202D47" p-id="1375"></path><path d="M442.46 593l136.3 136.38" fill="#FFFFFF" p-id="1376"></path><path d="M453.39 582l136.33 136.37-21.83 21.83-136.33-136.33z" fill="#202D47" p-id="1377"></path><path d="M367.59 588l187.48 187.51" fill="#FFFFFF" p-id="1378"></path><path d="M378.52 577.06L566 764.53l-21.84 21.83-187.47-187.47z" fill="#202D47" p-id="1379"></path><path d="M662.12 296.58C617.05 302.6 566 306 512 306c-70.08 0-135.07-5.72-188.56-15.36v38.59c53.49 9.65 118.48 15.36 188.56 15.36 54 0 105-3.4 150.12-9.34z" fill="#2DCD54" p-id="1380"></path></svg>